<svg width="25" height="24" viewBox="0 0 25 24" fill="none" xmlns="http://www.w3.org/2000/svg">
    <path d="M6.205 3.71001L4.795 2.29001C1.5 5.563 1.5 7.935 1.5 11H2.5L3.5 10.937C3.5 8.00901 3.5 6.39601 6.205 3.71001ZM20.204 2.29001L18.796 3.71001C21.5 6.39601 21.5 8.009 21.5 11L23.5 10.937C23.5 7.93501 23.5 5.563 20.204 2.29001ZM12.5 22C13.1193 22.0008 13.7235 21.8086 14.2285 21.4502C14.7335 21.0917 15.1143 20.5849 15.318 20H9.682C9.88566 20.5849 10.2665 21.0917 10.7715 21.4502C11.2765 21.8086 11.8807 22.0008 12.5 22ZM19.5 14.586V10C19.5 6.783 17.315 4.073 14.355 3.25801C14.2079 2.88625 13.9523 2.5674 13.6214 2.34301C13.2906 2.11863 12.8998 1.9991 12.5 2.00001C12.1002 1.9991 11.7094 2.11863 11.3786 2.34301C11.0477 2.5674 10.7921 2.88625 10.645 3.25801C7.684 4.073 5.5 6.783 5.5 10V14.586L3.793 16.293C3.69996 16.3857 3.62617 16.4959 3.57588 16.6172C3.5256 16.7386 3.49981 16.8687 3.5 17V18C3.5 18.2652 3.60536 18.5196 3.79289 18.7071C3.98043 18.8946 4.23478 19 4.5 19H20.5C20.7652 19 21.0196 18.8946 21.2071 18.7071C21.3946 18.5196 21.5 18.2652 21.5 18V17C21.5002 16.8687 21.4744 16.7386 21.4241 16.6172C21.3738 16.4959 21.3 16.3857 21.207 16.293L19.5 14.586Z"
          fill="#8A8884"/>
</svg>
