<svg width="14" height="14" viewBox="0 0 14 14" fill="none" xmlns="http://www.w3.org/2000/svg">
    <path
            d="M12.892 0.802021C12.7995 0.709317 12.6896 0.635769 12.5686 0.585588C12.4477 0.535407 12.318 0.509576 12.187 0.509576C12.0561 0.509576 11.9264 0.535407 11.8054 0.585588C11.6844 0.635769 11.5745 0.709317 11.482 0.802021L6.59202 5.68202L1.70202 0.79202C1.60944 0.699438 1.49953 0.625998 1.37856 0.575893C1.2576 0.525788 1.12795 0.5 0.997021 0.5C0.86609 0.5 0.736441 0.525788 0.615477 0.575893C0.494513 0.625998 0.384602 0.699438 0.29202 0.79202C0.199438 0.884602 0.125998 0.994513 0.0758934 1.11548C0.0257884 1.23644 -9.75509e-10 1.36609 0 1.49702C9.75509e-10 1.62795 0.0257884 1.7576 0.0758934 1.87856C0.125998 1.99953 0.199438 2.10944 0.29202 2.20202L5.18202 7.09202L0.29202 11.982C0.199438 12.0746 0.125998 12.1845 0.0758934 12.3055C0.0257884 12.4264 0 12.5561 0 12.687C0 12.818 0.0257884 12.9476 0.0758934 13.0686C0.125998 13.1895 0.199438 13.2994 0.29202 13.392C0.384602 13.4846 0.494513 13.558 0.615477 13.6081C0.736441 13.6583 0.86609 13.684 0.997021 13.684C1.12795 13.684 1.2576 13.6583 1.37856 13.6081C1.49953 13.558 1.60944 13.4846 1.70202 13.392L6.59202 8.50202L11.482 13.392C11.5746 13.4846 11.6845 13.558 11.8055 13.6081C11.9264 13.6583 12.0561 13.684 12.187 13.684C12.318 13.684 12.4476 13.6583 12.5686 13.6081C12.6895 13.558 12.7994 13.4846 12.892 13.392C12.9846 13.2994 13.058 13.1895 13.1081 13.0686C13.1583 12.9476 13.184 12.818 13.184 12.687C13.184 12.5561 13.1583 12.4264 13.1081 12.3055C13.058 12.1845 12.9846 12.0746 12.892 11.982L8.00202 7.09202L12.892 2.20202C13.272 1.82202 13.272 1.18202 12.892 0.802021Z"
            fill="#848A9B"/>
</svg>