<svg width="517" height="121" viewBox="0 0 517 121" fill="none" xmlns="http://www.w3.org/2000/svg">
<path d="M56.173 0.67303C50.2139 1.28293 43.9482 2.79842 38.3531 5.03471C33.6586 6.90136 27.5653 10.3944 23.3116 13.6841C20.8398 15.5878 15.8578 20.3745 13.8842 22.7402C1.52526 37.6179 -2.86265 56.5801 1.851 74.914C3.95873 83.1014 7.71433 90.494 13.3286 97.4986C15.398 100.086 21.2421 105.704 23.9822 107.756C34.3867 115.5 46.1134 119.732 59.0472 120.416C70.0457 120.989 81.1975 118.623 91.0081 113.652C108.234 104.928 120.421 88.8122 123.62 70.5153C124.253 66.819 124.444 64.6197 124.444 60.5352C124.464 56.229 124.234 53.697 123.505 49.8158C120.516 33.9216 110.993 19.894 96.9864 10.7086C88.6129 5.21953 78.8216 1.78193 68.7619 0.746957C65.7153 0.45125 58.9322 0.414287 56.173 0.67303ZM66.6159 6.56869C84.5699 8.04722 100.282 17.2881 109.824 31.9995C113.963 38.3387 116.607 45.4172 117.815 53.235C118.332 56.691 118.294 64.7121 117.7 68.2791C115.573 81.5119 108.732 93.3217 98.3277 101.731C90.0692 108.403 81.0059 112.339 70.1607 113.966C66.4626 114.52 58.5107 114.576 54.9275 114.077C39.5602 111.896 26.569 104.503 17.3716 92.7303C5.3575 77.3351 2.86655 56.7834 10.8568 38.9486C16.6243 26.1223 27.7378 15.6617 41.2464 10.3759C49.2367 7.25251 58.2999 5.88487 66.6159 6.56869Z" fill="black"/>
<path d="M57.5143 12.5937C50.9037 13.3515 45.8835 14.7561 40.365 17.362C35.134 19.857 31.0527 22.6477 27.048 26.5289C19.4602 33.8661 14.689 42.9776 12.9645 53.4567C12.543 55.9887 12.3705 62.3279 12.6579 65.0632C15.5321 92.7303 41.8788 112.321 70.2373 107.867C91.1039 104.577 107.87 88.5165 111.338 68.4454C113.082 58.4468 111.568 48.4482 106.969 39.3737C99.7648 25.2167 86.007 15.4399 69.6817 12.9264C67.8422 12.6492 59.1622 12.4089 57.5143 12.5937ZM60.9442 18.8405C60.9058 18.8775 54.2761 22.5553 46.2092 26.9909C38.1423 31.4266 31.3976 35.2338 31.2251 35.4371C30.8994 35.7882 30.8802 36.4351 30.8802 43.2733V50.7399H25.4193C22.411 50.7399 19.9583 50.666 19.9583 50.5921C19.9583 50.204 21.0314 46.9512 21.702 45.3063C27.527 31.1308 41.1698 20.929 56.8628 18.9699C58.2424 18.8036 61.0783 18.7112 60.9442 18.8405ZM67.2865 18.9514C84.4741 20.9659 98.9217 32.6279 103.961 48.5406C104.747 50.9987 105.341 50.7399 98.7109 50.7399H92.9625V43.1994C92.9625 36.2318 92.9434 35.6219 92.6368 35.3447C92.4452 35.1968 85.7004 31.4266 77.6336 26.9909C69.5667 22.5369 62.9369 18.8775 62.8986 18.8405C62.7262 18.6927 65.7153 18.7666 67.2865 18.9514ZM76.5605 28.5619L90.8356 36.4166V85.0235L76.5414 92.8782C68.6853 97.2029 62.0747 100.733 61.8447 100.714C61.634 100.696 55.0617 97.1659 47.2631 92.8597L33.0838 85.005V36.4166L47.3589 28.5249C55.215 24.1817 61.7873 20.6517 61.9597 20.6702C62.1322 20.6887 68.7044 24.2372 76.5605 28.5619ZM30.8802 85.6888L31.3209 86.0954C31.5509 86.3172 38.3339 90.1244 46.3816 94.5415L61.0016 102.581L60.0627 102.637C59.5645 102.673 58.0508 102.563 56.6904 102.396C43.0093 100.714 30.7269 92.6934 24.1546 81.1423C22.4301 78.1113 20.5523 73.6018 20.0541 71.2916L19.92 70.7001H30.8802V85.6888ZM104.459 71.0883C104.459 71.31 104.057 72.6592 103.559 74.0823C98.5193 88.7013 85.4513 99.5131 69.6817 102.119C67.5164 102.489 62.6687 102.84 62.8794 102.618C62.9369 102.581 69.5667 98.8847 77.6336 94.4491C85.7004 90.0135 92.4452 86.2432 92.6368 86.0769C92.9434 85.8182 92.9625 85.2083 92.9625 78.2407V70.7001H98.7109C102.543 70.7001 104.459 70.8295 104.459 71.0883Z" fill="black"/>
<path d="M37.9699 39.2813H42.3769V81.974H37.9699V86.964H54.6593L54.5443 82.0664L50.0414 81.9555V63.6771H73.8013V81.974H69.3942V86.964H86.0837L85.9687 82.0664L81.4658 81.9555V39.2998L85.9687 39.1889L86.0837 34.2912H69.3942V39.2813H73.8013V57.763L61.9789 57.726L50.1372 57.6706L50.0798 48.4667L50.0414 39.2813H54.6401V34.2912H37.9699V39.2813Z" fill="black"/>
<path d="M413.817 20.2636C403.317 21.0214 393.276 25.6048 385.727 33.1084C374.153 44.641 370.436 61.6441 376.184 76.8176C382.124 92.5455 397.357 103.542 414.526 104.503C425.39 105.095 435.546 102.082 444.053 95.7429L445.529 94.6524V62.1986H429.242V85.5779L427.709 86.2063C424.011 87.7033 421.136 88.2763 417.362 88.2763C411.173 88.2947 405.884 86.5575 400.883 82.8796C390.766 75.4315 387.489 61.8474 393.18 50.8324C396.687 44.0496 403.508 38.8193 411.134 37.1005C419.604 35.1784 428.418 37.3777 435.182 43.0516C435.967 43.7169 436.657 44.2713 436.714 44.2713C436.81 44.2713 445.529 30.3361 445.529 30.1698C445.529 30.1329 444.858 29.5969 444.053 28.987C437.174 23.886 429.318 20.9475 420.753 20.2636C418.032 20.0419 416.921 20.0419 413.817 20.2636Z" fill="black"/>
<path d="M145.273 102.858H162.326V70.1457H196.241V102.858H213.103V20.9844H196.241V53.697H162.326V20.9844H145.273V102.858Z" fill="black"/>
<path d="M228.815 102.858H287.066L287.027 94.6709L286.97 86.502L245.869 86.4096V70.1457H273.653V53.697H245.869V37.4331L286.97 37.3407V21.0768L228.815 20.9844V102.858Z" fill="black"/>
<path d="M298.945 102.858H312.895C323.989 102.858 327.323 102.803 329.258 102.581C341.905 101.158 352.846 94.6524 359.936 84.3397C366.412 74.9325 368.539 63.1596 365.703 52.2C364.707 48.3004 362.791 43.8832 360.664 40.5935C358.364 37.008 354.839 33.0714 351.6 30.484C346.868 26.6583 340.18 23.4425 334.298 22.1303C329.776 21.1138 329.603 21.1138 313.757 21.0399L298.945 20.9659V102.858ZM329.603 37.8767C338.782 39.8912 345.775 45.9162 348.669 54.3069C349.646 57.1531 349.972 59.5187 349.857 62.8455C349.704 66.819 349.033 69.388 347.308 72.8071C343.84 79.5529 337.67 84.2103 329.795 85.966C328.645 86.2248 327.132 86.2987 322.188 86.3542L315.999 86.4281V37.3962L322.092 37.4886C326.902 37.544 328.473 37.6364 329.603 37.8767Z" fill="black"/>
<path d="M458.75 102.858H517L516.962 94.6709L516.904 86.502L475.803 86.4096V70.1457H503.587V53.697H475.803V37.4331L516.904 37.3407V21.0768L458.75 20.9844V102.858Z" fill="black"/>
</svg>
