<svg width="257" height="256" viewBox="0 0 257 256" fill="none" xmlns="http://www.w3.org/2000/svg">
    <g clip-path="url(#clip0_2466_4713)">
        <path opacity="0.1"
              d="M256.939 129.219C256.939 199.481 199.981 256.439 129.72 256.439C59.4581 256.439 2.5 199.481 2.5 129.219C2.5 58.9581 59.4581 1.99994 129.72 1.99994C199.981 1.99994 256.939 58.9581 256.939 129.219ZM47.0268 129.219C47.0268 174.889 84.0496 211.912 129.72 211.912C175.389 211.912 212.412 174.889 212.412 129.219C212.412 83.5495 175.389 46.5268 129.72 46.5268C84.0496 46.5268 47.0268 83.5495 47.0268 129.219Z"
              fill="#1F1E1C"/>
        <path d="M256.939 128.78C256.939 199.041 199.981 256 129.72 256C59.4581 256 2.5 199.041 2.5 128.78C2.5 58.5187 59.4581 1.56055 129.72 1.56055C199.981 1.56055 256.939 58.5187 256.939 128.78ZM47.0268 128.78C47.0268 174.45 84.0496 211.473 129.72 211.473C175.389 211.473 212.412 174.45 212.412 128.78C212.412 83.1102 175.389 46.0874 129.72 46.0874C84.0496 46.0874 47.0268 83.1102 47.0268 128.78Z"
              fill="#FF7500"/>
        <path d="M129.72 241C129.72 249.284 122.981 256.091 114.754 255.116C95.8895 252.882 77.698 246.442 61.5519 236.195C41.1687 223.259 24.8867 204.791 14.6079 182.947C4.32896 161.104 0.477449 136.786 3.50316 112.835C6.52888 88.8842 16.3069 66.2885 31.6952 47.6873C47.0835 29.086 67.4467 15.2472 90.4065 7.78711C113.366 0.327022 137.975 -0.446329 161.358 5.55738C184.741 11.5611 205.933 24.094 222.459 41.6923C235.549 55.6324 245.284 72.2949 251.014 90.4064C253.513 98.3049 248.089 106.2 239.951 107.752L225.682 110.474C217.544 112.027 209.814 106.609 206.819 98.8854C202.997 89.0269 197.301 79.9484 190 72.173C179.258 60.7341 165.483 52.5877 150.284 48.6853C135.085 44.7829 119.09 45.2856 104.166 50.1346C89.2422 54.9837 76.0061 63.979 66.0037 76.0698C56.0013 88.1606 49.6456 102.848 47.6789 118.416C45.7122 133.984 48.2157 149.79 54.8969 163.989C61.5782 178.187 72.1615 190.192 85.4106 198.6C94.4164 204.315 104.401 208.208 114.801 210.116C122.95 211.611 129.72 218.188 129.72 226.473V241Z"
              fill="#A7A7A7"/>
        <path d="M55.4779 48.7682L59.8081 40.1972V40.1276H54.7819V38.5864H61.7172V40.1624L57.392 48.7682H55.4779ZM63.3218 48.7682V47.4358L66.8566 43.9706C67.1947 43.6292 67.4764 43.326 67.7018 43.0608C67.9272 42.7957 68.0962 42.5388 68.2089 42.2902C68.3216 42.0416 68.3779 41.7765 68.3779 41.4948C68.3779 41.1733 68.305 40.8982 68.1592 40.6695C68.0133 40.4375 67.8128 40.2585 67.5576 40.1325C67.3024 40.0066 67.0124 39.9436 66.6876 39.9436C66.3528 39.9436 66.0595 40.0132 65.8076 40.1524C65.5557 40.2883 65.3602 40.4822 65.221 40.7341C65.0851 40.986 65.0171 41.2859 65.0171 41.634H63.2622C63.2622 40.9876 63.4097 40.4259 63.7046 39.9486C63.9996 39.4713 64.4056 39.1018 64.9227 38.8399C65.443 38.5781 66.0396 38.4472 66.7124 38.4472C67.3952 38.4472 67.9951 38.5748 68.5122 38.83C69.0292 39.0852 69.4302 39.4349 69.7153 39.879C70.0036 40.3231 70.1478 40.8302 70.1478 41.4003C70.1478 41.7814 70.0749 42.156 69.9291 42.5239C69.7832 42.8918 69.5264 43.2994 69.1585 43.7469C68.7939 44.1943 68.2818 44.7362 67.6222 45.3726L65.8673 47.1574V47.227H70.3019V48.7682H63.3218ZM77.461 46.8591V46.3222C77.461 45.9278 77.5439 45.5648 77.7096 45.2334C77.8786 44.9019 78.1239 44.6351 78.4454 44.433C78.7669 44.2308 79.1563 44.1297 79.6137 44.1297C80.0844 44.1297 80.4788 44.2308 80.797 44.433C81.1151 44.6318 81.3554 44.897 81.5178 45.2284C81.6836 45.5599 81.7664 45.9244 81.7664 46.3222V46.8591C81.7664 47.2535 81.6836 47.6164 81.5178 47.9479C81.3521 48.2793 81.1085 48.5461 80.787 48.7483C80.4688 48.9505 80.0777 49.0516 79.6137 49.0516C79.1497 49.0516 78.757 48.9505 78.4355 48.7483C78.114 48.5461 77.8704 48.2793 77.7046 47.9479C77.5422 47.6164 77.461 47.2535 77.461 46.8591ZM78.7586 46.3222V46.8591C78.7586 47.1209 78.8216 47.3612 78.9475 47.58C79.0735 47.7987 79.2955 47.9081 79.6137 47.9081C79.9352 47.9081 80.1556 47.8004 80.2749 47.5849C80.3976 47.3662 80.4589 47.1242 80.4589 46.8591V46.3222C80.4589 46.057 80.4009 45.8151 80.2849 45.5963C80.1689 45.3742 79.9452 45.2632 79.6137 45.2632C79.3022 45.2632 79.0818 45.3742 78.9525 45.5963C78.8232 45.8151 78.7586 46.057 78.7586 46.3222ZM72.2856 41.0324V40.4955C72.2856 40.0977 72.3701 39.7332 72.5392 39.4017C72.7082 39.0703 72.9535 38.8051 73.2749 38.6063C73.5964 38.4041 73.9859 38.303 74.4433 38.303C74.9106 38.303 75.3034 38.4041 75.6215 38.6063C75.943 38.8051 76.185 39.0703 76.3474 39.4017C76.5098 39.7332 76.591 40.0977 76.591 40.4955V41.0324C76.591 41.4301 76.5081 41.7947 76.3424 42.1261C76.18 42.4543 75.9381 42.7178 75.6166 42.9166C75.2951 43.1155 74.904 43.2149 74.4433 43.2149C73.9759 43.2149 73.5815 43.1155 73.26 42.9166C72.9419 42.7178 72.6999 42.4526 72.5342 42.1212C72.3685 41.7897 72.2856 41.4268 72.2856 41.0324ZM73.5931 40.4955V41.0324C73.5931 41.2975 73.6544 41.5395 73.7771 41.7582C73.903 41.9737 74.1251 42.0814 74.4433 42.0814C74.7615 42.0814 74.9802 41.9737 75.0995 41.7582C75.2222 41.5395 75.2835 41.2975 75.2835 41.0324V40.4955C75.2835 40.2303 75.2255 39.9884 75.1095 39.7696C74.9935 39.5475 74.7714 39.4365 74.4433 39.4365C74.1284 39.4365 73.908 39.5475 73.782 39.7696C73.6561 39.9917 73.5931 40.2336 73.5931 40.4955ZM72.8524 48.7682L79.8524 38.5864H81.0953L74.0953 48.7682H72.8524Z"
              fill="#021229"/>
        <path d="M198.169 202.79V201.457L201.703 197.992C202.041 197.651 202.323 197.348 202.548 197.082C202.774 196.817 202.943 196.56 203.056 196.312C203.168 196.063 203.225 195.798 203.225 195.516C203.225 195.195 203.152 194.92 203.006 194.691C202.86 194.459 202.66 194.28 202.404 194.154C202.149 194.028 201.859 193.965 201.534 193.965C201.2 193.965 200.906 194.035 200.654 194.174C200.402 194.31 200.207 194.504 200.068 194.756C199.932 195.008 199.864 195.308 199.864 195.656H198.109C198.109 195.009 198.256 194.447 198.551 193.97C198.846 193.493 199.252 193.123 199.769 192.862C200.29 192.6 200.886 192.469 201.559 192.469C202.242 192.469 202.842 192.596 203.359 192.852C203.876 193.107 204.277 193.456 204.562 193.901C204.85 194.345 204.994 194.852 204.994 195.422C204.994 195.803 204.922 196.178 204.776 196.545C204.63 196.913 204.373 197.321 204.005 197.768C203.641 198.216 203.128 198.758 202.469 199.394L200.714 201.179V201.249H205.149V202.79H198.169ZM210.483 202.929C209.744 202.929 209.088 202.805 208.514 202.556C207.944 202.308 207.497 201.968 207.172 201.537C206.851 201.103 206.691 200.611 206.695 200.06C206.691 199.633 206.784 199.24 206.973 198.882C207.162 198.524 207.417 198.226 207.739 197.987C208.064 197.745 208.425 197.591 208.823 197.525V197.455C208.299 197.339 207.875 197.072 207.55 196.655C207.228 196.234 207.069 195.748 207.073 195.198C207.069 194.675 207.215 194.207 207.51 193.796C207.805 193.385 208.209 193.062 208.723 192.827C209.237 192.588 209.824 192.469 210.483 192.469C211.136 192.469 211.718 192.588 212.228 192.827C212.742 193.062 213.146 193.385 213.441 193.796C213.74 194.207 213.889 194.675 213.889 195.198C213.889 195.748 213.725 196.234 213.396 196.655C213.072 197.072 212.652 197.339 212.139 197.455V197.525C212.536 197.591 212.894 197.745 213.213 197.987C213.534 198.226 213.789 198.524 213.978 198.882C214.17 199.24 214.267 199.633 214.267 200.06C214.267 200.611 214.104 201.103 213.779 201.537C213.454 201.968 213.007 202.308 212.437 202.556C211.87 202.805 211.219 202.929 210.483 202.929ZM210.483 201.507C210.864 201.507 211.196 201.442 211.477 201.313C211.759 201.181 211.978 200.995 212.134 200.756C212.289 200.518 212.369 200.243 212.372 199.931C212.369 199.606 212.285 199.32 212.119 199.071C211.956 198.819 211.733 198.622 211.448 198.479C211.166 198.337 210.844 198.266 210.483 198.266C210.119 198.266 209.794 198.337 209.509 198.479C209.224 198.622 208.998 198.819 208.833 199.071C208.67 199.32 208.591 199.606 208.594 199.931C208.591 200.243 208.667 200.518 208.823 200.756C208.978 200.992 209.197 201.176 209.479 201.308C209.764 201.441 210.099 201.507 210.483 201.507ZM210.483 196.869C210.795 196.869 211.07 196.806 211.308 196.68C211.55 196.554 211.741 196.378 211.88 196.153C212.019 195.927 212.091 195.667 212.094 195.372C212.091 195.081 212.021 194.825 211.885 194.607C211.749 194.384 211.56 194.214 211.318 194.094C211.076 193.972 210.798 193.911 210.483 193.911C210.162 193.911 209.878 193.972 209.633 194.094C209.391 194.214 209.202 194.384 209.066 194.607C208.934 194.825 208.869 195.081 208.872 195.372C208.869 195.667 208.935 195.927 209.071 196.153C209.21 196.375 209.401 196.55 209.643 196.68C209.888 196.806 210.168 196.869 210.483 196.869ZM221.345 200.881V200.344C221.345 199.949 221.428 199.586 221.593 199.255C221.762 198.924 222.008 198.657 222.329 198.455C222.651 198.252 223.04 198.151 223.498 198.151C223.968 198.151 224.363 198.252 224.681 198.455C224.999 198.653 225.239 198.919 225.402 199.25C225.567 199.581 225.65 199.946 225.65 200.344V200.881C225.65 201.275 225.567 201.638 225.402 201.969C225.236 202.301 224.992 202.568 224.671 202.77C224.353 202.972 223.962 203.073 223.498 203.073C223.033 203.073 222.641 202.972 222.319 202.77C221.998 202.568 221.754 202.301 221.588 201.969C221.426 201.638 221.345 201.275 221.345 200.881ZM222.642 200.344V200.881C222.642 201.143 222.705 201.383 222.831 201.602C222.957 201.82 223.179 201.93 223.498 201.93C223.819 201.93 224.039 201.822 224.159 201.607C224.281 201.388 224.343 201.146 224.343 200.881V200.344C224.343 200.079 224.285 199.837 224.169 199.618C224.053 199.396 223.829 199.285 223.498 199.285C223.186 199.285 222.966 199.396 222.836 199.618C222.707 199.837 222.642 200.079 222.642 200.344ZM216.169 195.054V194.517C216.169 194.119 216.254 193.755 216.423 193.423C216.592 193.092 216.837 192.827 217.159 192.628C217.48 192.426 217.87 192.325 218.327 192.325C218.794 192.325 219.187 192.426 219.505 192.628C219.827 192.827 220.069 193.092 220.231 193.423C220.394 193.755 220.475 194.119 220.475 194.517V195.054C220.475 195.452 220.392 195.816 220.226 196.148C220.064 196.476 219.822 196.739 219.5 196.938C219.179 197.137 218.788 197.237 218.327 197.237C217.86 197.237 217.465 197.137 217.144 196.938C216.826 196.739 216.584 196.474 216.418 196.143C216.252 195.811 216.169 195.448 216.169 195.054ZM217.477 194.517V195.054C217.477 195.319 217.538 195.561 217.661 195.78C217.787 195.995 218.009 196.103 218.327 196.103C218.645 196.103 218.864 195.995 218.983 195.78C219.106 195.561 219.167 195.319 219.167 195.054V194.517C219.167 194.252 219.109 194.01 218.993 193.791C218.877 193.569 218.655 193.458 218.327 193.458C218.012 193.458 217.792 193.569 217.666 193.791C217.54 194.013 217.477 194.255 217.477 194.517ZM216.736 202.79L223.736 192.608H224.979L217.979 202.79H216.736Z"
              fill="#021229"/>
    </g>
    <defs>
        <clipPath id="clip0_2466_4713">
            <rect width="256" height="256" fill="white" transform="translate(0.5)"/>
        </clipPath>
    </defs>
</svg>
