<svg width="257" height="256" viewBox="0 0 257 256" fill="none" xmlns="http://www.w3.org/2000/svg">
    <g clip-path="url(#clip0_2466_4574)">
        <path opacity="0.1"
              d="M256.939 129.219C256.939 199.481 199.981 256.439 129.72 256.439C59.4581 256.439 2.5 199.481 2.5 129.219C2.5 58.9581 59.4581 1.99994 129.72 1.99994C199.981 1.99994 256.939 58.9581 256.939 129.219ZM47.0268 129.219C47.0268 174.889 84.0496 211.912 129.72 211.912C175.389 211.912 212.412 174.889 212.412 129.219C212.412 83.5495 175.389 46.5268 129.72 46.5268C84.0496 46.5268 47.0268 83.5495 47.0268 129.219Z"
              fill="#1F1E1C"/>
        <path d="M256.939 128.78C256.939 199.041 199.981 256 129.72 256C59.4581 256 2.5 199.041 2.5 128.78C2.5 58.5187 59.4581 1.56055 129.72 1.56055C199.981 1.56055 256.939 58.5187 256.939 128.78ZM47.0268 128.78C47.0268 174.45 84.0496 211.473 129.72 211.473C175.389 211.473 212.412 174.45 212.412 128.78C212.412 83.1102 175.389 46.0874 129.72 46.0874C84.0496 46.0874 47.0268 83.1102 47.0268 128.78Z"
              fill="#FFA812"/>
        <path d="M129.72 241C129.72 249.284 122.98 256.091 114.754 255.116C91.8892 252.408 70.0864 243.53 51.7458 229.303C29.4369 211.999 13.5182 187.765 6.49683 160.418C-0.524554 133.072 1.75034 104.167 12.9632 78.2551C24.1761 52.3437 43.6898 30.8983 68.431 17.2968C93.1723 3.69515 121.735 -1.28986 149.621 3.12683C177.507 7.54352 203.131 21.111 222.459 41.6923C241.786 62.2736 253.717 88.6994 256.374 116.808C258.559 139.916 254.373 163.082 244.408 183.838C240.823 191.307 231.464 193.349 224.47 188.91L212.204 181.126C205.21 176.687 203.283 167.447 206.387 159.766C211.324 147.55 213.299 134.259 212.045 120.998C210.318 102.728 202.563 85.5509 190 72.173C177.437 58.7952 160.781 49.9763 142.656 47.1055C124.53 44.2346 105.964 47.4749 89.882 56.3159C73.8002 65.157 61.1163 79.0964 53.8279 95.9388C46.5396 112.781 45.0609 131.57 49.6248 149.345C54.1887 167.12 64.5358 182.872 79.0366 194.12C89.5619 202.284 101.841 207.739 114.801 210.116C122.95 211.611 129.72 218.188 129.72 226.473V241Z"
              fill="#3C84F0"/>
        <path d="M120.024 31.1392C119.285 31.1392 118.629 31.0149 118.055 30.7663C117.485 30.5178 117.038 30.178 116.713 29.7472C116.392 29.313 116.232 28.8208 116.236 28.2706C116.232 27.843 116.325 27.4503 116.514 27.0923C116.703 26.7344 116.958 26.4361 117.28 26.1974C117.605 25.9555 117.966 25.8014 118.364 25.7351V25.6655C117.84 25.5495 117.416 25.2827 117.091 24.8651C116.769 24.4441 116.61 23.9586 116.614 23.4084C116.61 22.8847 116.756 22.4174 117.051 22.0064C117.346 21.5954 117.75 21.2723 118.264 21.0369C118.778 20.7983 119.365 20.679 120.024 20.679C120.677 20.679 121.259 20.7983 121.769 21.0369C122.283 21.2723 122.687 21.5954 122.982 22.0064C123.281 22.4174 123.43 22.8847 123.43 23.4084C123.43 23.9586 123.266 24.4441 122.938 24.8651C122.613 25.2827 122.193 25.5495 121.68 25.6655V25.7351C122.077 25.8014 122.435 25.9555 122.754 26.1974C123.075 26.4361 123.33 26.7344 123.519 27.0923C123.711 27.4503 123.808 27.843 123.808 28.2706C123.808 28.8208 123.645 29.313 123.32 29.7472C122.996 30.178 122.548 30.5178 121.978 30.7663C121.411 31.0149 120.76 31.1392 120.024 31.1392ZM120.024 29.7173C120.405 29.7173 120.737 29.6527 121.018 29.5234C121.3 29.3909 121.519 29.2053 121.675 28.9666C121.83 28.728 121.91 28.4529 121.913 28.1413C121.91 27.8165 121.826 27.5298 121.66 27.2812C121.497 27.0294 121.274 26.8321 120.989 26.6896C120.707 26.5471 120.385 26.4759 120.024 26.4759C119.66 26.4759 119.335 26.5471 119.05 26.6896C118.765 26.8321 118.539 27.0294 118.374 27.2812C118.211 27.5298 118.132 27.8165 118.135 28.1413C118.132 28.4529 118.208 28.728 118.364 28.9666C118.519 29.2019 118.738 29.3859 119.02 29.5185C119.305 29.651 119.64 29.7173 120.024 29.7173ZM120.024 25.0788C120.336 25.0788 120.611 25.0159 120.849 24.8899C121.091 24.764 121.282 24.5883 121.421 24.3629C121.56 24.1375 121.632 23.8774 121.635 23.5824C121.632 23.2907 121.562 23.0355 121.426 22.8168C121.29 22.5947 121.101 22.424 120.859 22.3047C120.617 22.1821 120.339 22.1207 120.024 22.1207C119.703 22.1207 119.419 22.1821 119.174 22.3047C118.932 22.424 118.743 22.5947 118.607 22.8168C118.475 23.0355 118.41 23.2907 118.413 23.5824C118.41 23.8774 118.476 24.1375 118.612 24.3629C118.751 24.585 118.942 24.7607 119.184 24.8899C119.429 25.0159 119.709 25.0788 120.024 25.0788ZM125.258 29.1108V27.6442L129.578 20.8182H130.801V22.9062H130.056L127.147 27.5149V27.5945H133.178V29.1108H125.258ZM130.115 31V28.6634L130.135 28.0071V20.8182H131.875V31H130.115ZM140.21 29.0909V28.554C140.21 28.1596 140.293 27.7966 140.459 27.4652C140.628 27.1338 140.873 26.867 141.194 26.6648C141.516 26.4626 141.905 26.3615 142.363 26.3615C142.833 26.3615 143.228 26.4626 143.546 26.6648C143.864 26.8636 144.104 27.1288 144.267 27.4602C144.433 27.7917 144.515 28.1562 144.515 28.554V29.0909C144.515 29.4853 144.433 29.8482 144.267 30.1797C144.101 30.5111 143.858 30.7779 143.536 30.9801C143.218 31.1823 142.827 31.2834 142.363 31.2834C141.899 31.2834 141.506 31.1823 141.184 30.9801C140.863 30.7779 140.619 30.5111 140.454 30.1797C140.291 29.8482 140.21 29.4853 140.21 29.0909ZM141.508 28.554V29.0909C141.508 29.3527 141.571 29.593 141.697 29.8118C141.823 30.0305 142.045 30.1399 142.363 30.1399C142.684 30.1399 142.905 30.0322 143.024 29.8168C143.147 29.598 143.208 29.3561 143.208 29.0909V28.554C143.208 28.2888 143.15 28.0469 143.034 27.8281C142.918 27.6061 142.694 27.495 142.363 27.495C142.051 27.495 141.831 27.6061 141.702 27.8281C141.572 28.0469 141.508 28.2888 141.508 28.554ZM135.035 23.2642V22.7273C135.035 22.3295 135.119 21.965 135.288 21.6335C135.457 21.3021 135.702 21.0369 136.024 20.8381C136.345 20.6359 136.735 20.5348 137.192 20.5348C137.66 20.5348 138.052 20.6359 138.371 20.8381C138.692 21.0369 138.934 21.3021 139.096 21.6335C139.259 21.965 139.34 22.3295 139.34 22.7273V23.2642C139.34 23.6619 139.257 24.0265 139.091 24.358C138.929 24.6861 138.687 24.9496 138.366 25.1484C138.044 25.3473 137.653 25.4467 137.192 25.4467C136.725 25.4467 136.331 25.3473 136.009 25.1484C135.691 24.9496 135.449 24.6844 135.283 24.353C135.117 24.0215 135.035 23.6586 135.035 23.2642ZM136.342 22.7273V23.2642C136.342 23.5294 136.403 23.7713 136.526 23.9901C136.652 24.2055 136.874 24.3132 137.192 24.3132C137.51 24.3132 137.729 24.2055 137.849 23.9901C137.971 23.7713 138.032 23.5294 138.032 23.2642V22.7273C138.032 22.4621 137.974 22.2202 137.858 22.0014C137.742 21.7794 137.52 21.6683 137.192 21.6683C136.877 21.6683 136.657 21.7794 136.531 22.0014C136.405 22.2235 136.342 22.4654 136.342 22.7273ZM135.601 31L142.601 20.8182H143.844L136.844 31H135.601Z"
              fill="#021229"/>
        <path d="M176.546 214.818V225H174.702V216.613H174.642L172.261 218.134V216.444L174.791 214.818H176.546ZM182.86 225.139C182.373 225.136 181.897 225.051 181.433 224.886C180.969 224.717 180.552 224.443 180.18 224.065C179.809 223.684 179.514 223.179 179.295 222.549C179.077 221.916 178.969 221.132 178.972 220.197C178.972 219.326 179.065 218.549 179.251 217.866C179.436 217.183 179.703 216.606 180.051 216.136C180.399 215.662 180.818 215.3 181.309 215.052C181.803 214.803 182.355 214.679 182.964 214.679C183.604 214.679 184.171 214.805 184.665 215.057C185.162 215.309 185.563 215.653 185.868 216.091C186.173 216.525 186.362 217.016 186.435 217.562H184.62C184.527 217.171 184.337 216.86 184.048 216.628C183.763 216.393 183.402 216.275 182.964 216.275C182.259 216.275 181.715 216.581 181.334 217.195C180.956 217.808 180.765 218.65 180.762 219.72H180.832C180.994 219.429 181.205 219.178 181.463 218.969C181.722 218.761 182.013 218.6 182.338 218.487C182.666 218.371 183.013 218.313 183.377 218.313C183.974 218.313 184.509 218.456 184.983 218.741C185.46 219.026 185.838 219.419 186.116 219.919C186.395 220.416 186.532 220.986 186.529 221.629C186.532 222.299 186.38 222.9 186.072 223.434C185.763 223.964 185.334 224.382 184.784 224.687C184.234 224.992 183.593 225.143 182.86 225.139ZM182.85 223.648C183.211 223.648 183.535 223.56 183.82 223.384C184.105 223.209 184.33 222.972 184.496 222.673C184.661 222.375 184.743 222.04 184.739 221.669C184.743 221.304 184.663 220.975 184.501 220.68C184.342 220.385 184.121 220.151 183.839 219.979C183.558 219.806 183.236 219.72 182.875 219.72C182.607 219.72 182.356 219.772 182.124 219.874C181.892 219.977 181.69 220.12 181.518 220.302C181.345 220.481 181.21 220.69 181.11 220.928C181.014 221.164 180.964 221.415 180.961 221.684C180.964 222.039 181.047 222.365 181.21 222.663C181.372 222.962 181.596 223.2 181.881 223.379C182.166 223.558 182.489 223.648 182.85 223.648ZM193.653 223.091V222.554C193.653 222.16 193.736 221.797 193.902 221.465C194.071 221.134 194.316 220.867 194.638 220.665C194.959 220.463 195.349 220.362 195.806 220.362C196.277 220.362 196.671 220.463 196.989 220.665C197.308 220.864 197.548 221.129 197.71 221.46C197.876 221.792 197.959 222.156 197.959 222.554V223.091C197.959 223.485 197.876 223.848 197.71 224.18C197.545 224.511 197.301 224.778 196.979 224.98C196.661 225.182 196.27 225.283 195.806 225.283C195.342 225.283 194.949 225.182 194.628 224.98C194.306 224.778 194.063 224.511 193.897 224.18C193.735 223.848 193.653 223.485 193.653 223.091ZM194.951 222.554V223.091C194.951 223.353 195.014 223.593 195.14 223.812C195.266 224.031 195.488 224.14 195.806 224.14C196.128 224.14 196.348 224.032 196.467 223.817C196.59 223.598 196.651 223.356 196.651 223.091V222.554C196.651 222.289 196.593 222.047 196.477 221.828C196.361 221.606 196.138 221.495 195.806 221.495C195.495 221.495 195.274 221.606 195.145 221.828C195.016 222.047 194.951 222.289 194.951 222.554ZM188.478 217.264V216.727C188.478 216.33 188.563 215.965 188.732 215.634C188.901 215.302 189.146 215.037 189.467 214.838C189.789 214.636 190.178 214.535 190.636 214.535C191.103 214.535 191.496 214.636 191.814 214.838C192.135 215.037 192.377 215.302 192.54 215.634C192.702 215.965 192.783 216.33 192.783 216.727V217.264C192.783 217.662 192.701 218.027 192.535 218.358C192.372 218.686 192.13 218.95 191.809 219.148C191.487 219.347 191.096 219.447 190.636 219.447C190.168 219.447 189.774 219.347 189.452 219.148C189.134 218.95 188.892 218.684 188.727 218.353C188.561 218.022 188.478 217.659 188.478 217.264ZM189.786 216.727V217.264C189.786 217.529 189.847 217.771 189.969 217.99C190.095 218.205 190.317 218.313 190.636 218.313C190.954 218.313 191.173 218.205 191.292 217.99C191.415 217.771 191.476 217.529 191.476 217.264V216.727C191.476 216.462 191.418 216.22 191.302 216.001C191.186 215.779 190.964 215.668 190.636 215.668C190.321 215.668 190.1 215.779 189.974 216.001C189.848 216.223 189.786 216.465 189.786 216.727ZM189.045 225L196.045 214.818H197.288L190.288 225H189.045Z"
              fill="#021229"/>
    </g>
    <defs>
        <clipPath id="clip0_2466_4574">
            <rect width="256" height="256" fill="white" transform="translate(0.5)"/>
        </clipPath>
    </defs>
</svg>
