<svg width="257" height="256" viewBox="0 0 257 256" fill="none" xmlns="http://www.w3.org/2000/svg">
    <g clip-path="url(#clip0_2466_4801)">
        <path opacity="0.1"
              d="M256.939 129.22C256.939 199.481 199.981 256.439 129.72 256.439C59.4581 256.439 2.5 199.481 2.5 129.22C2.5 58.9581 59.4581 2 129.72 2C199.981 2 256.939 58.9581 256.939 129.22ZM47.0268 129.22C47.0268 174.889 84.0496 211.912 129.72 211.912C175.389 211.912 212.412 174.889 212.412 129.22C212.412 83.5496 175.389 46.5268 129.72 46.5268C84.0496 46.5268 47.0268 83.5496 47.0268 129.22Z"
              fill="#1F1E1C"/>
        <path d="M256.939 128.78C256.939 199.041 199.981 256 129.72 256C59.4581 256 2.5 199.041 2.5 128.78C2.5 58.5187 59.4581 1.56055 129.72 1.56055C199.981 1.56055 256.939 58.5187 256.939 128.78ZM47.0268 128.78C47.0268 174.45 84.0496 211.473 129.72 211.473C175.389 211.473 212.412 174.45 212.412 128.78C212.412 83.1102 175.389 46.0874 129.72 46.0874C84.0496 46.0874 47.0268 83.1102 47.0268 128.78Z"
              fill="#FF7500"/>
        <path d="M129.72 241C129.72 249.284 122.981 256.091 114.754 255.116C100.869 253.472 87.3154 249.545 74.6497 243.463C57.4643 235.21 42.3532 223.201 30.4335 208.323C18.5139 193.445 10.0903 176.078 5.78565 157.506C1.48095 138.935 1.40516 119.633 5.56386 101.028C9.72256 82.423 18.0094 64.9906 29.8119 50.0192C41.6143 35.0479 56.6306 22.9205 73.7507 14.5334C90.8708 6.14639 109.657 1.71419 128.72 1.56447C142.77 1.45412 156.706 3.67198 169.97 8.09564C177.828 10.7166 181.028 19.745 177.5 27.2408L171.315 40.3851C167.788 47.8809 158.862 50.9505 150.852 48.8333C143.767 46.9604 136.443 46.032 129.07 46.0899C116.679 46.1873 104.468 49.0682 93.3398 54.5197C82.2117 59.9713 72.4512 67.8541 64.7796 77.5855C57.108 87.3169 51.7215 98.648 49.0183 110.741C46.3152 122.834 46.3645 135.381 49.1625 147.452C51.9606 159.524 57.4358 170.812 65.1836 180.483C72.9314 190.154 82.7536 197.96 93.9241 203.324C100.571 206.515 107.593 208.794 114.802 210.116C122.95 211.611 129.72 218.188 129.72 226.473V241Z"
              fill="#FFA812"/>
        <path d="M22.9446 96.1392C22.2817 96.1392 21.6884 96.0149 21.1648 95.7663C20.6411 95.5144 20.2251 95.1697 19.9169 94.7322C19.612 94.2947 19.4496 93.7943 19.4297 93.2308H21.2195C21.2526 93.6484 21.4332 93.9898 21.7614 94.255C22.0895 94.5168 22.4839 94.6477 22.9446 94.6477C23.3059 94.6477 23.6274 94.5649 23.9091 94.3991C24.1908 94.2334 24.4129 94.0031 24.5753 93.7081C24.7377 93.4131 24.8172 93.0767 24.8139 92.6989C24.8172 92.3144 24.736 91.973 24.5703 91.6747C24.4046 91.3764 24.1776 91.1428 23.8892 90.9737C23.6009 90.8014 23.2694 90.7152 22.8949 90.7152C22.59 90.7119 22.29 90.7682 21.995 90.8842C21.7 91.0002 21.4664 91.1527 21.294 91.3416L19.6286 91.0682L20.1605 85.8182H26.0668V87.3594H21.6868L21.3935 90.0589H21.4531C21.642 89.8369 21.9089 89.6529 22.2536 89.5071C22.5982 89.358 22.9761 89.2834 23.3871 89.2834C24.0036 89.2834 24.5537 89.4292 25.0376 89.7209C25.5215 90.0092 25.9027 90.407 26.1811 90.9141C26.4595 91.4212 26.5987 92.0012 26.5987 92.6541C26.5987 93.3269 26.4429 93.9268 26.1314 94.4538C25.8232 94.9775 25.3939 95.3902 24.8438 95.6918C24.2969 95.9901 23.6638 96.1392 22.9446 96.1392ZM28.6371 96L32.9673 87.429V87.3594H27.9411V85.8182H34.8764V87.3942L30.5511 96H28.6371ZM41.9249 94.0909V93.554C41.9249 93.1596 42.0078 92.7966 42.1735 92.4652C42.3425 92.1338 42.5878 91.867 42.9093 91.6648C43.2308 91.4626 43.6202 91.3615 44.0776 91.3615C44.5482 91.3615 44.9426 91.4626 45.2608 91.6648C45.579 91.8636 45.8193 92.1288 45.9817 92.4602C46.1474 92.7917 46.2303 93.1562 46.2303 93.554V94.0909C46.2303 94.4853 46.1474 94.8482 45.9817 95.1797C45.816 95.5111 45.5724 95.7779 45.2509 95.9801C44.9327 96.1823 44.5416 96.2834 44.0776 96.2834C43.6136 96.2834 43.2208 96.1823 42.8993 95.9801C42.5778 95.7779 42.3342 95.5111 42.1685 95.1797C42.0061 94.8482 41.9249 94.4853 41.9249 94.0909ZM43.2225 93.554V94.0909C43.2225 94.3527 43.2855 94.593 43.4114 94.8118C43.5373 95.0305 43.7594 95.1399 44.0776 95.1399C44.3991 95.1399 44.6195 95.0322 44.7388 94.8168C44.8614 94.598 44.9228 94.3561 44.9228 94.0909V93.554C44.9228 93.2888 44.8648 93.0469 44.7488 92.8281C44.6328 92.6061 44.409 92.495 44.0776 92.495C43.766 92.495 43.5456 92.6061 43.4164 92.8281C43.2871 93.0469 43.2225 93.2888 43.2225 93.554ZM36.7495 88.2642V87.7273C36.7495 87.3295 36.834 86.965 37.003 86.6335C37.1721 86.3021 37.4173 86.0369 37.7388 85.8381C38.0603 85.6359 38.4498 85.5348 38.9071 85.5348C39.3745 85.5348 39.7672 85.6359 40.0854 85.8381C40.4069 86.0369 40.6489 86.3021 40.8113 86.6335C40.9737 86.965 41.0549 87.3295 41.0549 87.7273V88.2642C41.0549 88.6619 40.972 89.0265 40.8063 89.358C40.6439 89.6861 40.4019 89.9496 40.0804 90.1484C39.7589 90.3473 39.3678 90.4467 38.9071 90.4467C38.4398 90.4467 38.0454 90.3473 37.7239 90.1484C37.4057 89.9496 37.1638 89.6844 36.998 89.353C36.8323 89.0215 36.7495 88.6586 36.7495 88.2642ZM38.057 87.7273V88.2642C38.057 88.5294 38.1183 88.7713 38.2409 88.9901C38.3669 89.2055 38.589 89.3132 38.9071 89.3132C39.2253 89.3132 39.4441 89.2055 39.5634 88.9901C39.686 88.7713 39.7473 88.5294 39.7473 88.2642V87.7273C39.7473 87.4621 39.6893 87.2202 39.5733 87.0014C39.4573 86.7794 39.2353 86.6683 38.9071 86.6683C38.5923 86.6683 38.3719 86.7794 38.2459 87.0014C38.12 87.2235 38.057 87.4654 38.057 87.7273ZM37.3162 96L44.3162 85.8182H45.5591L38.5591 96H37.3162Z"
              fill="#021229"/>
        <path d="M212.221 179.111V177.644L216.541 170.818H217.764V172.906H217.018L214.11 177.515V177.594H220.141V179.111H212.221ZM217.078 181V178.663L217.098 178.007V170.818H218.838V181H217.078ZM225.383 181.139C224.667 181.139 224.031 181.017 223.474 180.771C222.921 180.526 222.483 180.185 222.162 179.747C221.84 179.31 221.669 178.804 221.65 178.231H223.519C223.535 178.506 223.627 178.746 223.792 178.952C223.958 179.154 224.178 179.311 224.453 179.424C224.729 179.537 225.037 179.593 225.378 179.593C225.743 179.593 226.066 179.53 226.348 179.404C226.629 179.275 226.85 179.096 227.009 178.867C227.168 178.638 227.246 178.375 227.243 178.077C227.246 177.768 227.166 177.497 227.004 177.261C226.842 177.026 226.606 176.842 226.298 176.71C225.993 176.577 225.625 176.511 225.194 176.511H224.294V175.089H225.194C225.549 175.089 225.859 175.027 226.124 174.905C226.392 174.782 226.603 174.61 226.755 174.388C226.908 174.162 226.982 173.902 226.979 173.607C226.982 173.319 226.918 173.069 226.785 172.857C226.656 172.641 226.472 172.474 226.233 172.354C225.998 172.235 225.721 172.175 225.403 172.175C225.092 172.175 224.803 172.232 224.538 172.344C224.273 172.457 224.059 172.618 223.897 172.827C223.734 173.032 223.648 173.277 223.638 173.562H221.863C221.877 172.992 222.041 172.492 222.355 172.061C222.674 171.627 223.098 171.289 223.628 171.047C224.158 170.802 224.753 170.679 225.413 170.679C226.092 170.679 226.682 170.807 227.183 171.062C227.687 171.314 228.076 171.653 228.351 172.081C228.626 172.509 228.764 172.981 228.764 173.498C228.767 174.071 228.598 174.552 228.257 174.94C227.919 175.327 227.475 175.581 226.924 175.7V175.78C227.64 175.879 228.189 176.144 228.57 176.575C228.954 177.003 229.145 177.535 229.142 178.171C229.142 178.741 228.979 179.252 228.654 179.702C228.333 180.15 227.889 180.501 227.322 180.756C226.759 181.012 226.112 181.139 225.383 181.139ZM236.292 179.091V178.554C236.292 178.16 236.375 177.797 236.541 177.465C236.71 177.134 236.955 176.867 237.276 176.665C237.598 176.463 237.987 176.362 238.445 176.362C238.915 176.362 239.31 176.463 239.628 176.665C239.946 176.864 240.186 177.129 240.349 177.46C240.515 177.792 240.597 178.156 240.597 178.554V179.091C240.597 179.485 240.515 179.848 240.349 180.18C240.183 180.511 239.94 180.778 239.618 180.98C239.3 181.182 238.909 181.283 238.445 181.283C237.981 181.283 237.588 181.182 237.267 180.98C236.945 180.778 236.701 180.511 236.536 180.18C236.373 179.848 236.292 179.485 236.292 179.091ZM237.59 178.554V179.091C237.59 179.353 237.653 179.593 237.779 179.812C237.905 180.031 238.127 180.14 238.445 180.14C238.766 180.14 238.987 180.032 239.106 179.817C239.229 179.598 239.29 179.356 239.29 179.091V178.554C239.29 178.289 239.232 178.047 239.116 177.828C239 177.606 238.776 177.495 238.445 177.495C238.133 177.495 237.913 177.606 237.784 177.828C237.654 178.047 237.59 178.289 237.59 178.554ZM231.117 173.264V172.727C231.117 172.33 231.201 171.965 231.37 171.634C231.539 171.302 231.785 171.037 232.106 170.838C232.427 170.636 232.817 170.535 233.274 170.535C233.742 170.535 234.134 170.636 234.453 170.838C234.774 171.037 235.016 171.302 235.178 171.634C235.341 171.965 235.422 172.33 235.422 172.727V173.264C235.422 173.662 235.339 174.027 235.173 174.358C235.011 174.686 234.769 174.95 234.448 175.148C234.126 175.347 233.735 175.447 233.274 175.447C232.807 175.447 232.413 175.347 232.091 175.148C231.773 174.95 231.531 174.684 231.365 174.353C231.2 174.022 231.117 173.659 231.117 173.264ZM232.424 172.727V173.264C232.424 173.529 232.485 173.771 232.608 173.99C232.734 174.205 232.956 174.313 233.274 174.313C233.593 174.313 233.811 174.205 233.931 173.99C234.053 173.771 234.115 173.529 234.115 173.264V172.727C234.115 172.462 234.057 172.22 233.941 172.001C233.825 171.779 233.602 171.668 233.274 171.668C232.959 171.668 232.739 171.779 232.613 172.001C232.487 172.223 232.424 172.465 232.424 172.727ZM231.683 181L238.683 170.818H239.926L232.926 181H231.683Z"
              fill="#021229"/>
    </g>
    <defs>
        <clipPath id="clip0_2466_4801">
            <rect width="256" height="256" fill="white" transform="translate(0.5)"/>
        </clipPath>
    </defs>
</svg>
