<svg width="54" height="55" viewBox="0 0 54 55" fill="none" xmlns="http://www.w3.org/2000/svg">
    <path d="M27 0.5C12.3633 0.5 0 12.8633 0 27.5C0 42.1367 12.3633 54.5 27 54.5C41.6367 54.5 54 42.1367 54 27.5C54 12.8633 41.6367 0.5 27 0.5ZM27 14C31.6629 14 35.1 17.4344 35.1 22.1C35.1 26.7656 31.6629 30.2 27 30.2C22.3398 30.2 18.9 26.7656 18.9 22.1C18.9 17.4344 22.3398 14 27 14ZM13.2138 40.3844C15.6357 36.8204 19.6749 34.4444 24.3 34.4444H29.7C34.3278 34.4444 38.3643 36.8204 40.7862 40.3844C39.0255 42.2813 36.8924 43.7946 34.5203 44.8297C32.1482 45.8647 29.5881 46.3993 27 46.4C24.4119 46.3993 21.8518 45.8647 19.4797 44.8297C17.1076 43.7946 14.9745 42.2813 13.2138 40.3844Z"
          fill="#8A8884"/>
</svg>
