<svg width="24" height="19" viewBox="0 0 24 19" fill="none" xmlns="http://www.w3.org/2000/svg">
<path d="M19.2794 18.6311H2.77926C1.44167 18.6311 0.352941 17.4925 0.352941 16.0948V2.90518C0.352941 1.50746 1.44212 0.368932 2.77926 0.368932H19.2794C20.617 0.368932 21.7057 1.50746 21.7057 2.90518V6.96328C21.7057 7.24339 21.4883 7.47072 21.2203 7.47072C20.9523 7.47072 20.7348 7.24339 20.7348 6.96328V2.90518C20.7348 2.06626 20.0815 1.38334 19.279 1.38334H2.77926C1.97671 1.38334 1.32338 2.06626 1.32338 2.90518V16.0943C1.32338 16.9333 1.97671 17.6162 2.77926 17.6162H19.2794C20.082 17.6162 20.7353 16.9333 20.7353 16.0943V13.0507C20.7353 12.7705 20.9528 12.5432 21.2207 12.5432C21.4887 12.5432 21.7062 12.7705 21.7062 13.0507V16.0943C21.7062 17.4925 20.6165 18.6311 19.2794 18.6311Z" fill="#0058A0"/>
<path d="M22.1912 13.5581H16.3676C14.4946 13.5581 12.9704 11.9654 12.9704 10.007C12.9704 8.04854 14.4941 6.45583 16.3676 6.45583H22.1912C22.9937 6.45583 23.6471 7.13876 23.6471 7.97768V12.0358C23.6471 12.8747 22.9937 13.5581 22.1912 13.5581ZM16.3676 7.47072C15.0301 7.47072 13.9413 8.60925 13.9413 10.007C13.9413 11.4047 15.0305 12.5432 16.3676 12.5432H22.1912C22.4592 12.5432 22.6766 12.3159 22.6766 12.0358V7.97768C22.6766 7.69757 22.4592 7.47024 22.1912 7.47024L16.3676 7.47072Z" fill="#0058A0"/>
<path d="M16.6484 9.19896C16.2257 9.19896 15.8827 9.55754 15.8827 9.99936C15.8827 10.4412 16.2257 10.7998 16.6484 10.7998C17.071 10.7998 17.4141 10.4412 17.4141 9.99936C17.4141 9.55754 17.071 9.19896 16.6484 9.19896Z" fill="#0058A0"/>
<path fill-rule="evenodd" clip-rule="evenodd" d="M16.3676 7.83965C15.225 7.83965 14.2943 8.81296 14.2943 10.007C14.2943 11.2009 15.2254 12.1743 16.3676 12.1743H22.1912C22.2642 12.1743 22.3237 12.1121 22.3237 12.0358V7.97768C22.3237 7.90133 22.2642 7.83918 22.1912 7.83917C22.1912 7.83917 22.1912 7.83917 22.1912 7.83917L21.2458 7.83925C21.2373 7.83951 21.2288 7.83965 21.2203 7.83965C21.2118 7.83965 21.2033 7.83952 21.1949 7.83925L16.3676 7.83965ZM16.3676 7.47072C15.0301 7.47072 13.9413 8.60925 13.9413 10.007C13.9413 11.4047 15.0305 12.5432 16.3676 12.5432H22.1912C22.4592 12.5432 22.6766 12.3159 22.6766 12.0358V7.97768C22.6766 7.69757 22.4592 7.47024 22.1912 7.47024L21.2397 7.47032C21.2332 7.47058 21.2268 7.47072 21.2203 7.47072C21.2138 7.47072 21.2074 7.47058 21.201 7.47032L16.3676 7.47072ZM16.3676 6.45583C14.4941 6.45583 12.9704 8.04854 12.9704 10.007C12.9704 11.9654 14.4946 13.5581 16.3676 13.5581H20.7353V16.0943C20.7353 16.9333 20.082 17.6162 19.2794 17.6162H2.77926C1.97671 17.6162 1.32338 16.9333 1.32338 16.0943V2.90518C1.32338 2.06626 1.97671 1.38334 2.77926 1.38334H19.279C20.0815 1.38334 20.7348 2.06626 20.7348 2.90518V6.45583H16.3676ZM20.3819 6.0869H16.3676C14.2992 6.0869 12.6175 7.84479 12.6175 10.007C12.6175 12.1692 14.2997 13.927 16.3676 13.927H20.3824V16.0943C20.3824 16.7295 19.887 17.2473 19.2794 17.2473H2.77926C2.17163 17.2473 1.67632 16.7295 1.67632 16.0943V2.90518C1.67632 2.27002 2.17163 1.75227 2.77926 1.75227H19.279C19.8866 1.75227 20.3819 2.27002 20.3819 2.90518V6.0869ZM21.7057 2.90518C21.7057 1.50746 20.617 0.368932 19.2794 0.368932H2.77926C1.44212 0.368932 0.352941 1.50746 0.352941 2.90518V16.0948C0.352941 17.4925 1.44167 18.6311 2.77926 18.6311H19.2794C20.6165 18.6311 21.7062 17.4925 21.7062 16.0943V13.5581H22.1912C22.9937 13.5581 23.6471 12.8747 23.6471 12.0358V7.97768C23.6471 7.13876 22.9937 6.45583 22.1912 6.45583H21.7057V2.90518ZM22.0587 6.0869V2.90518C22.0587 1.30375 20.812 0 19.2794 0H2.77926C1.2472 0 0 1.30371 0 2.90518V16.0948C0 17.6962 1.2467 19 2.77926 19H19.2794C20.8114 19 22.0591 17.6963 22.0591 16.0943V13.927H22.1912C23.1888 13.927 24 13.0783 24 12.0358V7.97768C24 6.93501 23.1887 6.0869 22.1912 6.0869H22.0587ZM15.5297 9.99936C15.5297 9.35379 16.0308 8.83003 16.6484 8.83003C17.2659 8.83003 17.767 9.35379 17.767 9.99936C17.767 10.6449 17.2659 11.1687 16.6484 11.1687C16.0308 11.1687 15.5297 10.6449 15.5297 9.99936ZM15.8827 9.99936C15.8827 9.55754 16.2257 9.19896 16.6484 9.19896C17.071 9.19896 17.4141 9.55754 17.4141 9.99936C17.4141 10.4412 17.071 10.7998 16.6484 10.7998C16.2257 10.7998 15.8827 10.4412 15.8827 9.99936Z" fill="#0058A0"/>
</svg>
